<svg width="500" height="117" version="1.1" xmlns="http://www.w3.org/2000/svg" desc="Created with imagetracer.js version 1.2.6" ><path fill="rgb(0,0,0)" stroke="rgb(0,0,0)" stroke-width="1" opacity="0" d="M 0 0 L 499.5 0 L 500 0.5 L 500 117 L 0.5 117 L 0 116.5 L 0 0 Z M 37 2 L 25 6 L 17 14 L 13 26 L 13 91 L 18 105 L 30 113 L 41 114 L 42 115 L 98 115 L 99 114 L 110 113 L 117 109 Q 122 105 124 99 L 126 90 L 126 27 L 122 14 L 115 6 L 103 2 L 37 2 Z M 236 35 L 233 39 L 234 45 L 237 46 Q 242 47 244 45 L 245 43 L 244 36 Q 242 34 236 35 Z M 135 38 L 135 87 L 145 87 L 145 68 L 164 68 L 164 59 L 145 59 L 145 47 L 166 47 L 166 39 L 166 38 L 135 38 Z M 325 38 L 325 87 L 336 87 L 336 67 L 345 68 L 348 73 L 352 86 L 353 87 L 363 87 L 356 67 L 352 64 L 356 62 L 361 55 Q 362 47 359 44 Q 356 39 351 38 L 325 38 Z M 214 49 L 205 53 L 203 58 L 204 67 L 210 71 L 221 74 L 222 74 L 222 79 L 220 80 Q 213 81 211 77 Q 208 78 209 75 L 207 75 L 202 81 L 203 84 L 213 88 Q 222 89 228 86 L 232 81 L 232 72 L 230 68 L 225 65 L 215 63 Q 212 62 213 58 L 216 57 L 220 57 L 226 61 L 231 55 L 226 50 L 214 49 Z M 262 49 L 253 53 L 247 63 Q 245 76 250 82 Q 254 86 261 88 Q 272 90 277 85 L 281 81 L 284 72 Q 284 61 280 56 Q 275 48 262 49 Z M 304 49 L 300 51 L 296 54 L 296 50 L 286 50 L 286 87 L 287 87 L 296 87 L 296 66 L 297 62 L 302 58 Q 307 57 309 59 L 310 62 L 310 87 L 320 87 L 320 59 L 318 54 Q 314 48 304 49 Z M 378 49 L 369 53 L 363 63 Q 361 76 366 82 Q 370 86 377 88 Q 388 90 393 85 Q 399 81 400 71 L 403 81 Q 406 86 414 88 Q 426 90 432 84 L 437 75 Q 438 64 435 58 Q 431 51 423 49 Q 412 48 408 52 L 403 57 L 400 67 Q 400 59 396 56 Q 391 48 378 49 Z M 457 49 L 453 51 L 450 55 L 449 55 L 449 50 L 440 50 L 440 87 L 441 87 L 450 87 L 450 63 L 451 61 Q 453 57 460 58 L 462 62 L 462 87 L 472 87 L 472 64 L 473 61 Q 475 57 482 58 L 484 62 L 484 87 L 494 87 L 494 59 L 492 54 L 486 49 L 479 49 L 471 55 L 470 54 Q 467 48 457 49 Z M 167 50 L 167 78 L 170 85 L 176 88 L 187 87 L 190 83 L 191 83 L 191 87 L 201 87 L 201 51 L 201 50 L 191 50 L 191 70 L 189 77 Q 187 81 180 79 L 177 75 L 177 50 L 167 50 Z M 234 50 L 234 87 L 235 87 L 244 87 L 244 51 L 244 50 L 234 50 Z " /><path fill="rgb(0,0,0)" stroke="rgb(0,0,0)" stroke-width="1" opacity="0" d="M 336 46 L 345.5 46 L 350 49.5 Q 351.5 56.5 347.5 58 L 345.5 59 L 336 59 L 336 46 Z " /><path fill="rgb(0,0,0)" stroke="rgb(0,0,0)" stroke-width="1" opacity="0" d="M 262.5 58 Q 270.1 56.9 272 61.5 Q 274.7 65.3 273 73.5 L 268.5 79 Q 259.8 80.8 258 75.5 L 257 64.5 L 260.5 59 L 262.5 58 Z " /><path fill="rgb(0,0,0)" stroke="rgb(0,0,0)" stroke-width="1" opacity="0" d="M 378.5 58 Q 386.1 56.9 388 61.5 Q 390.7 65.3 389 73.5 L 384.5 79 Q 375.8 80.8 374 75.5 L 373 64.5 L 376.5 59 L 378.5 58 Z " /><path fill="rgb(0,0,0)" stroke="rgb(0,0,0)" stroke-width="1" opacity="0" d="M 415.5 58 Q 422.8 56.8 425 60.5 L 427 66.5 L 427 71.5 L 422.5 79 Q 414.5 80.5 412 76.5 L 411 74.5 L 411 63.5 L 415.5 58 Z " /><path fill="rgb(132,176,249)" stroke="rgb(132,176,249)" stroke-width="1" opacity="0.984313725490196" d="M 38.5 2 L 100.5 2 L 109.5 4 L 120 11.5 Q 119.3 14.1 122 13 L 122 15.5 L 124 18.5 L 126 29.5 L 126 71.5 L 125 71.5 L 124.5 66 L 124 68 Q 117.7 69.5 116 65.5 L 114 62.5 L 111 48.5 L 111 46.5 L 110 40 L 108 40.5 L 108 63.5 L 107 64.5 L 107 75.5 L 106 76.5 L 106.5 78 L 104.5 79 L 101.5 78 L 90 67.5 L 89 64.5 L 89 49.5 L 91 48.5 L 90 49.5 L 90 62.5 Q 91 70.5 97.5 73 L 102.5 77 L 104.5 77 L 106 75.5 L 107 40.5 L 108 39.5 L 106 39 Q 107.3 36 103.5 37 L 97 40.5 L 98 41.5 L 94.5 45 L 92.5 45 L 88.5 46 L 86.5 43 L 84 44 L 82.5 40 L 76.5 37 L 35.5 37 L 30 41.5 L 29 47 L 27 47.5 L 28 49.5 L 26 55.5 Q 28.5 57 25 58.5 Q 26.3 64.6 23.5 64 L 21 65 Q 22.8 69.9 16.5 68 L 15 67.5 L 14.5 69 L 13 25.5 Q 15 13 23.5 7 L 29.5 4 L 38.5 2 Z " /><path fill="rgb(132,176,249)" stroke="rgb(132,176,249)" stroke-width="1" opacity="0.984313725490196" d="M 85.5 51 L 86 73 Q 82.3 74.3 84 68.5 L 85 67.5 L 85.5 51 Z " /><path fill="rgb(132,176,249)" stroke="rgb(132,176,249)" stroke-width="1" opacity="0.984313725490196" d="M 32.5 56 L 33 69.5 L 38.5 76 L 43 77.5 L 40.5 78 L 33 72.5 Q 30.2 66.2 32.5 56 Z " /><path fill="rgb(132,176,249)" stroke="rgb(132,176,249)" stroke-width="1" opacity="0.984313725490196" d="M 84 74 Q 86.7 72.9 86 75.5 L 85 78 L 82.5 79 L 81.5 77 Q 85.7 78.1 84 74 Z " /><path fill="rgb(221,230,250)" stroke="rgb(221,230,250)" stroke-width="1" opacity="0.9882352941176471" d="M 74.5 37 L 77 37.5 L 74.5 38 L 74.5 37 Z " /><path fill="rgb(221,230,250)" stroke="rgb(221,230,250)" stroke-width="1" opacity="0.9882352941176471" d="M 33.5 38 L 33 39.5 L 33 46.5 L 35.5 51 L 38.5 49 Q 40.3 51.8 46.5 50 L 48.5 50 L 79.5 50 L 80 51.5 L 81 51.5 L 84 45.5 L 80 39.5 L 84 42.5 L 86 50.5 L 85 51.5 L 85 67.5 L 84 72.5 L 84 74.5 Q 85.3 78.3 81.5 77 L 80.5 78 L 43.5 78 Q 37 76.5 34 71.5 L 33 69.5 L 33 56.5 L 32 55.5 L 32 39.5 L 33.5 38 Z M 34 48 L 33 51 L 34 51 L 34 48 Z " /><path fill="rgb(221,230,250)" stroke="rgb(221,230,250)" stroke-width="1" opacity="0.9882352941176471" d="M 101.5 38 L 101 39.5 L 96 46.5 L 96 48.5 Q 95.2 51.1 98.5 50 L 100.5 50 L 103.5 49 L 106 50 L 106.5 42 L 107 57.5 L 106 58.5 L 106 75.5 L 104.5 77 L 102.5 77 L 91 66.5 Q 88.7 59.8 90 49.5 L 93.5 45 L 101.5 38 Z M 95 46 L 92 51 L 94 51 L 95 49 Q 97 47 95 46 Z " /><path fill="rgb(253,253,253)" stroke="rgb(253,253,253)" stroke-width="1" opacity="0.9803921568627451" d="M 237.5 35 Q 242.6 34.4 244 37.5 Q 245.5 43.5 242.5 45 L 239.5 46 L 236.5 45 L 234 43.5 L 233 39.5 L 235.5 36 L 237.5 35 Z " /><path fill="rgb(253,253,253)" stroke="rgb(253,253,253)" stroke-width="1" opacity="0.9803921568627451" d="M 37.5 37 L 73.5 37 L 79.5 39 L 82 41.5 L 84 46.5 L 80.5 52 L 80 50 L 48.5 50 L 47.5 49 Q 45.8 51.8 39.5 50 L 37.5 49 L 35 50.5 L 34.5 48 L 33.5 51 L 33 48.5 L 33 46.5 Q 31.2 39.8 34.5 38 L 37.5 37 Z " /><path fill="rgb(253,253,253)" stroke="rgb(253,253,253)" stroke-width="1" opacity="0.9803921568627451" d="M 102.5 38 Q 106.3 37.3 107 39.5 L 106 42.5 L 106 49.5 L 104.5 50 L 102.5 49 L 100.5 50 L 98.5 50 Q 95.2 51.1 96 48.5 L 95 48.5 L 93.5 51 L 92 50.5 L 94.5 46 Q 95.8 48.3 97 45.5 L 102.5 38 Z " /><path fill="rgb(253,253,253)" stroke="rgb(253,253,253)" stroke-width="1" opacity="0.9803921568627451" d="M 135 38 L 165.5 38 L 166 38.5 L 166 46 L 145 46 L 145 59 L 164 59 L 164 67 L 145 67 L 145 87 L 135 87 L 135 38 Z " /><path fill="rgb(253,253,253)" stroke="rgb(253,253,253)" stroke-width="1" opacity="0.9803921568627451" d="M 326 38 L 351.5 39 L 359 44.5 L 360 55.5 L 355.5 61 L 351 63.5 L 356 67.5 L 362 87 L 353.5 87 L 352 85.5 L 348 71.5 L 344.5 67 L 335 67 L 335 87 L 326 87 L 326 38 Z M 335 46 L 335 59 L 348 59 Q 353 58 351 50 L 348 46 L 335 46 Z " /><path fill="rgb(253,253,253)" stroke="rgb(253,253,253)" stroke-width="1" opacity="0.9803921568627451" d="M 168 50 L 176.5 50 L 177 50.5 L 177 76.5 L 178 79 Q 180.1 80.6 185.5 80 L 190 76.5 L 191 73.5 L 191 50 L 199.5 50 L 200 50.5 L 200 87 L 191 87 L 191 82.5 L 186.5 86 L 179.5 88 L 174.5 87 L 170 83.5 L 168 79.5 L 168 50 Z " /><path fill="rgb(253,253,253)" stroke="rgb(253,253,253)" stroke-width="1" opacity="0.9803921568627451" d="M 212.5 50 Q 225.8 47.8 230 54.5 L 225.5 60 Q 223 55.5 214.5 57 L 212 58 Q 211 61.8 213.5 63 L 224.5 66 L 230 69.5 Q 232.8 72.2 232 78.5 L 227.5 85 L 223.5 87 L 216.5 88 L 207.5 86 L 202 81.5 L 206.5 76 L 208.5 76 L 213.5 80 L 220.5 80 Q 223.5 79.5 223 75.5 L 220.5 73 Q 210.3 72.3 205 66.5 Q 202.7 63.3 204 56.5 L 207.5 52 L 212.5 50 Z " /><path fill="rgb(253,253,253)" stroke="rgb(253,253,253)" stroke-width="1" opacity="0.9803921568627451" d="M 235.5 50 L 242.5 50 L 243 50.5 L 243 87 L 234.5 87 L 234 86.5 L 234 51.5 L 235.5 50 Z " /><path fill="rgb(253,253,253)" stroke="rgb(253,253,253)" stroke-width="1" opacity="0.9803921568627451" d="M 259.5 50 Q 275.2 47.8 280 56.5 Q 284.5 62 283 73.5 Q 281.1 81.1 275.5 85 L 271.5 87 L 264.5 88 L 254.5 85 L 250 80.5 L 247 72.5 L 247 65.5 L 249 58.5 L 253.5 53 L 259.5 50 Z M 264 57 L 261 58 L 257 63 L 256 68 L 258 77 L 263 80 L 270 79 L 273 76 L 274 72 Q 275 64 272 61 Q 270 57 264 57 Z " /><path fill="rgb(253,253,253)" stroke="rgb(253,253,253)" stroke-width="1" opacity="0.9803921568627451" d="M 287 50 L 295 50 L 295 55.5 L 300.5 51 Q 304 48.5 311.5 50 L 317 53.5 L 319 57.5 L 319 87 L 310.5 87 L 310 86.5 L 310 60.5 L 307.5 57 L 305.5 57 Q 298.9 56.4 297 60.5 L 296 62.5 L 296 87 L 287.5 87 L 287 86.5 L 287 50 Z " /><path fill="rgb(253,253,253)" stroke="rgb(253,253,253)" stroke-width="1" opacity="0.9803921568627451" d="M 375.5 50 Q 391.2 47.8 396 56.5 Q 400.5 62 399 73.5 Q 397.1 81.1 391.5 85 L 387.5 87 L 380.5 88 L 370.5 85 L 366 80.5 L 363 72.5 L 363 64.5 Q 364.4 57 369.5 53 L 375.5 50 Z M 380 57 L 377 58 L 373 63 L 372 68 L 374 77 L 379 80 L 386 79 L 389 76 L 390 72 Q 391 64 388 61 Q 386 57 380 57 Z " /><path fill="rgb(253,253,253)" stroke="rgb(253,253,253)" stroke-width="1" opacity="0.9803921568627451" d="M 413.5 50 L 424.5 50 L 432 54 L 436 61.5 L 437 69.5 L 435 78.5 L 430.5 84 Q 425.8 87.8 417.5 88 L 409.5 86 L 405 83 L 401 74.5 L 401 62.5 Q 402.8 55.3 408.5 52 L 413.5 50 Z M 417 57 L 415 58 L 410 65 Q 409 74 412 78 L 417 80 L 424 79 L 427 74 Q 429 65 426 62 Q 424 56 417 57 Z " /><path fill="rgb(253,253,253)" stroke="rgb(253,253,253)" stroke-width="1" opacity="0.9803921568627451" d="M 440 50 L 449 50 L 449 54.5 L 450.5 54 L 453.5 52 L 455.5 50 L 464.5 50 L 470 54.5 Q 469.3 57.1 472 56 L 475.5 51 Q 479 48.5 486.5 50 L 492 54.5 L 493 56.5 L 493 87 L 484.5 87 L 484 86.5 L 484 59.5 Q 482.6 56.4 477.5 57 L 472 61.5 L 471 65.5 L 471 87 L 462.5 87 L 462 86.5 L 462 60.5 L 461 58 L 455.5 57 L 451 59 L 449 64.5 L 449 87 L 440.5 87 L 440 86.5 L 440 50 Z " /><path fill="rgb(250,251,252)" stroke="rgb(250,251,252)" stroke-width="1" opacity="0.34509803921568627" d="M 114.5 6 L 115.5 8 L 114.5 6 Z " /><path fill="rgb(250,251,252)" stroke="rgb(250,251,252)" stroke-width="1" opacity="0.34509803921568627" d="M 125.5 26 L 126 28.5 L 125 28.5 L 125.5 26 Z " /><path fill="rgb(250,251,252)" stroke="rgb(250,251,252)" stroke-width="1" opacity="0.34509803921568627" d="M 235.5 35 L 237 35.5 L 234.5 37 L 235.5 35 Z " /><path fill="rgb(250,251,252)" stroke="rgb(250,251,252)" stroke-width="1" opacity="0.34509803921568627" d="M 244.5 38 L 245 42.5 L 244 42.5 L 244.5 38 Z " /><path fill="rgb(250,251,252)" stroke="rgb(250,251,252)" stroke-width="1" opacity="0.34509803921568627" d="M 325.5 38 L 326 86.5 L 325 86.5 L 325.5 38 Z " /><path fill="rgb(250,251,252)" stroke="rgb(250,251,252)" stroke-width="1" opacity="0.34509803921568627" d="M 346.5 38 L 351 38.5 L 346.5 39 L 346.5 38 Z " /><path fill="rgb(250,251,252)" stroke="rgb(250,251,252)" stroke-width="1" opacity="0.34509803921568627" d="M 355.5 40 L 358.5 44 L 355.5 40 Z " /><path fill="rgb(250,251,252)" stroke="rgb(250,251,252)" stroke-width="1" opacity="0.34509803921568627" d="M 145.5 46 L 166 46.5 L 145.5 47 L 145.5 46 Z " /><path fill="rgb(250,251,252)" stroke="rgb(250,251,252)" stroke-width="1" opacity="0.34509803921568627" d="M 335.5 46 L 336 58.5 L 335 58.5 L 335.5 46 Z " /><path fill="rgb(250,251,252)" stroke="rgb(250,251,252)" stroke-width="1" opacity="0.34509803921568627" d="M 346.5 46 L 351 49.5 Q 352.5 57.5 347.5 59 L 346 58.5 L 350 55.5 Q 351.5 48.5 347.5 47 L 346.5 46 Z " /><path fill="rgb(250,251,252)" stroke="rgb(250,251,252)" stroke-width="1" opacity="0.34509803921568627" d="M 360.5 48 L 361 54.5 L 360 54.5 L 360.5 48 Z " /><path fill="rgb(250,251,252)" stroke="rgb(250,251,252)" stroke-width="1" opacity="0.34509803921568627" d="M 213.5 49 L 222 49.5 L 213.5 50 L 213.5 49 Z " /><path fill="rgb(250,251,252)" stroke="rgb(250,251,252)" stroke-width="1" opacity="0.34509803921568627" d="M 261.5 49 L 269 49.5 L 261.5 50 L 261.5 49 Z " /><path fill="rgb(250,251,252)" stroke="rgb(250,251,252)" stroke-width="1" opacity="0.34509803921568627" d="M 303.5 49 L 311 49.5 L 303.5 50 L 303.5 49 Z " /><path fill="rgb(250,251,252)" stroke="rgb(250,251,252)" stroke-width="1" opacity="0.34509803921568627" d="M 377.5 49 L 385 49.5 L 377.5 50 L 377.5 49 Z " /><path fill="rgb(250,251,252)" stroke="rgb(250,251,252)" stroke-width="1" opacity="0.34509803921568627" d="M 414.5 49 L 423 49.5 L 414.5 50 L 414.5 49 Z " /><path fill="rgb(250,251,252)" stroke="rgb(250,251,252)" stroke-width="1" opacity="0.34509803921568627" d="M 456.5 49 L 464 49.5 L 456.5 50 L 456.5 49 Z " /><path fill="rgb(250,251,252)" stroke="rgb(250,251,252)" stroke-width="1" opacity="0.34509803921568627" d="M 478.5 49 L 486 49.5 L 478.5 50 L 478.5 49 Z " /><path fill="rgb(250,251,252)" stroke="rgb(250,251,252)" stroke-width="1" opacity="0.34509803921568627" d="M 167.5 50 L 168 77.5 L 167 77.5 L 167.5 50 Z " /><path fill="rgb(250,251,252)" stroke="rgb(250,251,252)" stroke-width="1" opacity="0.34509803921568627" d="M 200.5 50 L 201 86.5 L 200 86.5 L 200.5 50 Z " /><path fill="rgb(250,251,252)" stroke="rgb(250,251,252)" stroke-width="1" opacity="0.34509803921568627" d="M 224.5 50 L 231 54.5 L 225.5 61 L 224.5 59 L 225.5 60 L 230 55.5 L 227.5 52 Q 223.7 51.7 224.5 50 Z " /><path fill="rgb(250,251,252)" stroke="rgb(250,251,252)" stroke-width="1" opacity="0.34509803921568627" d="M 243.5 50 L 244 86.5 L 243 86.5 L 243.5 50 Z " /><path fill="rgb(250,251,252)" stroke="rgb(250,251,252)" stroke-width="1" opacity="0.34509803921568627" d="M 257.5 50 L 259 50.5 L 254.5 53 L 255.5 51 L 257.5 50 Z " /><path fill="rgb(250,251,252)" stroke="rgb(250,251,252)" stroke-width="1" opacity="0.34509803921568627" d="M 286.5 50 L 287 86.5 L 286 86.5 L 286.5 50 Z " /><path fill="rgb(250,251,252)" stroke="rgb(250,251,252)" stroke-width="1" opacity="0.34509803921568627" d="M 295.5 50 L 296.5 54 L 300 51.5 L 295 55.5 L 295.5 50 Z " /><path fill="rgb(250,251,252)" stroke="rgb(250,251,252)" stroke-width="1" opacity="0.34509803921568627" d="M 373.5 50 L 375 50.5 L 370.5 53 L 371.5 51 L 373.5 50 Z " /><path fill="rgb(250,251,252)" stroke="rgb(250,251,252)" stroke-width="1" opacity="0.34509803921568627" d="M 315.5 51 L 319 56.5 L 318 56.5 L 315.5 51 Z " /><path fill="rgb(250,251,252)" stroke="rgb(250,251,252)" stroke-width="1" opacity="0.34509803921568627" d="M 427.5 51 L 431 53.5 L 428.5 52 L 427.5 51 Z " /><path fill="rgb(250,251,252)" stroke="rgb(250,251,252)" stroke-width="1" opacity="0.34509803921568627" d="M 452.5 51 L 450.5 54 L 452.5 51 Z " /><path fill="rgb(250,251,252)" stroke="rgb(250,251,252)" stroke-width="1" opacity="0.34509803921568627" d="M 467.5 51 L 469.5 54 L 467.5 51 Z " /><path fill="rgb(250,251,252)" stroke="rgb(250,251,252)" stroke-width="1" opacity="0.34509803921568627" d="M 474.5 51 L 472 54.5 Q 472.8 56.8 470.5 56 L 474.5 51 Z " /><path fill="rgb(250,251,252)" stroke="rgb(250,251,252)" stroke-width="1" opacity="0.34509803921568627" d="M 489.5 51 L 491.5 54 L 489.5 51 Z " /><path fill="rgb(250,251,252)" stroke="rgb(250,251,252)" stroke-width="1" opacity="0.34509803921568627" d="M 276.5 52 L 279.5 56 L 276.5 52 Z " /><path fill="rgb(250,251,252)" stroke="rgb(250,251,252)" stroke-width="1" opacity="0.34509803921568627" d="M 392.5 52 L 395.5 56 L 392.5 52 Z " /><path fill="rgb(250,251,252)" stroke="rgb(250,251,252)" stroke-width="1" opacity="0.34509803921568627" d="M 407.5 52 L 403.5 57 L 407.5 52 Z " /><path fill="rgb(250,251,252)" stroke="rgb(250,251,252)" stroke-width="1" opacity="0.34509803921568627" d="M 252.5 53 L 251.5 55 L 252.5 53 Z " /><path fill="rgb(250,251,252)" stroke="rgb(250,251,252)" stroke-width="1" opacity="0.34509803921568627" d="M 368.5 53 L 367.5 55 L 368.5 53 Z " /><path fill="rgb(250,251,252)" stroke="rgb(250,251,252)" stroke-width="1" opacity="0.34509803921568627" d="M 432.5 55 L 435 58.5 L 434 58.5 L 432.5 55 Z " /><path fill="rgb(250,251,252)" stroke="rgb(250,251,252)" stroke-width="1" opacity="0.34509803921568627" d="M 250.5 56 L 249.5 58 L 250.5 56 Z " /><path fill="rgb(250,251,252)" stroke="rgb(250,251,252)" stroke-width="1" opacity="0.34509803921568627" d="M 359.5 56 L 360 57.5 L 351.5 64 L 352.5 62 L 359 57.5 L 359.5 56 Z " /><path fill="rgb(250,251,252)" stroke="rgb(250,251,252)" stroke-width="1" opacity="0.34509803921568627" d="M 366.5 56 L 365.5 58 L 366.5 56 Z " /><path fill="rgb(250,251,252)" stroke="rgb(250,251,252)" stroke-width="1" opacity="0.34509803921568627" d="M 203.5 57 L 204 63.5 L 203 63.5 L 203.5 57 Z " /><path fill="rgb(250,251,252)" stroke="rgb(250,251,252)" stroke-width="1" opacity="0.34509803921568627" d="M 220.5 57 L 223 58.5 L 221.5 58 L 220.5 57 Z " /><path fill="rgb(250,251,252)" stroke="rgb(250,251,252)" stroke-width="1" opacity="0.34509803921568627" d="M 263.5 57 L 267 57.5 L 263.5 58 L 263.5 57 Z " /><path fill="rgb(250,251,252)" stroke="rgb(250,251,252)" stroke-width="1" opacity="0.34509803921568627" d="M 280.5 57 L 282 59.5 L 281 59.5 L 280.5 57 Z " /><path fill="rgb(250,251,252)" stroke="rgb(250,251,252)" stroke-width="1" opacity="0.34509803921568627" d="M 302.5 57 L 306 57.5 L 302.5 58 L 302.5 57 Z " /><path fill="rgb(250,251,252)" stroke="rgb(250,251,252)" stroke-width="1" opacity="0.34509803921568627" d="M 379.5 57 L 383 57.5 L 379.5 58 L 379.5 57 Z " /><path fill="rgb(250,251,252)" stroke="rgb(250,251,252)" stroke-width="1" opacity="0.34509803921568627" d="M 396.5 57 L 398 59.5 L 397 59.5 L 396.5 57 Z " /><path fill="rgb(250,251,252)" stroke="rgb(250,251,252)" stroke-width="1" opacity="0.34509803921568627" d="M 416.5 57 L 421 57.5 L 416.5 58 L 416.5 57 Z " /><path fill="rgb(250,251,252)" stroke="rgb(250,251,252)" stroke-width="1" opacity="0.34509803921568627" d="M 455.5 57 L 459 57.5 L 455.5 58 L 455.5 57 Z " /><path fill="rgb(250,251,252)" stroke="rgb(250,251,252)" stroke-width="1" opacity="0.34509803921568627" d="M 477.5 57 L 481 57.5 L 477.5 58 L 477.5 57 Z " /><path fill="rgb(250,251,252)" stroke="rgb(250,251,252)" stroke-width="1" opacity="0.34509803921568627" d="M 212.5 58 L 214 62.5 L 212 61.5 L 212.5 58 Z " /><path fill="rgb(250,251,252)" stroke="rgb(250,251,252)" stroke-width="1" opacity="0.34509803921568627" d="M 260.5 58 L 262 58.5 L 258.5 61 L 260.5 58 Z " /><path fill="rgb(250,251,252)" stroke="rgb(250,251,252)" stroke-width="1" opacity="0.34509803921568627" d="M 268.5 58 L 272 60.5 L 269.5 59 L 268.5 58 Z " /><path fill="rgb(250,251,252)" stroke="rgb(250,251,252)" stroke-width="1" opacity="0.34509803921568627" d="M 319.5 58 L 320 86.5 L 319 86.5 L 319.5 58 Z " /><path fill="rgb(250,251,252)" stroke="rgb(250,251,252)" stroke-width="1" opacity="0.34509803921568627" d="M 376.5 58 L 378 58.5 L 374.5 61 L 376.5 58 Z " /><path fill="rgb(250,251,252)" stroke="rgb(250,251,252)" stroke-width="1" opacity="0.34509803921568627" d="M 384.5 58 L 388 60.5 L 385.5 59 L 384.5 58 Z " /><path fill="rgb(250,251,252)" stroke="rgb(250,251,252)" stroke-width="1" opacity="0.34509803921568627" d="M 414.5 58 L 412 61.5 L 411.5 63 L 411 61.5 L 414.5 58 Z " /><path fill="rgb(250,251,252)" stroke="rgb(250,251,252)" stroke-width="1" opacity="0.34509803921568627" d="M 482.5 58 L 484 60.5 L 483 60.5 L 482.5 58 Z " /><path fill="rgb(250,251,252)" stroke="rgb(250,251,252)" stroke-width="1" opacity="0.34509803921568627" d="M 493.5 58 L 494 79.5 L 493 79.5 L 493.5 58 Z " /><path fill="rgb(250,251,252)" stroke="rgb(250,251,252)" stroke-width="1" opacity="0.34509803921568627" d="M 298.5 59 L 297.5 61 L 298.5 59 Z " /><path fill="rgb(250,251,252)" stroke="rgb(250,251,252)" stroke-width="1" opacity="0.34509803921568627" d="M 436.5 59 L 435.5 61 L 436.5 59 Z " /><path fill="rgb(250,251,252)" stroke="rgb(250,251,252)" stroke-width="1" opacity="0.34509803921568627" d="M 247.5 62 L 248 64.5 L 247 64.5 L 247.5 62 Z " /><path fill="rgb(250,251,252)" stroke="rgb(250,251,252)" stroke-width="1" opacity="0.34509803921568627" d="M 296.5 62 L 297 64.5 L 296 64.5 L 296.5 62 Z " /><path fill="rgb(250,251,252)" stroke="rgb(250,251,252)" stroke-width="1" opacity="0.34509803921568627" d="M 426.5 63 L 427 65.5 L 426 65.5 L 426.5 63 Z " /><path fill="rgb(250,251,252)" stroke="rgb(250,251,252)" stroke-width="1" opacity="0.34509803921568627" d="M 436.5 63 L 437 66.5 L 436 66.5 L 436.5 63 Z " /><path fill="rgb(250,251,252)" stroke="rgb(250,251,252)" stroke-width="1" opacity="0.34509803921568627" d="M 218.5 64 L 221 64.5 L 218.5 65 L 218.5 64 Z " /><path fill="rgb(250,251,252)" stroke="rgb(250,251,252)" stroke-width="1" opacity="0.34509803921568627" d="M 353.5 64 L 355.5 67 L 353.5 64 Z " /><path fill="rgb(250,251,252)" stroke="rgb(250,251,252)" stroke-width="1" opacity="0.34509803921568627" d="M 400.5 64 L 401 72.5 L 400 72.5 L 399 67.5 L 400.5 64 Z " /><path fill="rgb(250,251,252)" stroke="rgb(250,251,252)" stroke-width="1" opacity="0.34509803921568627" d="M 410.5 64 L 411 73.5 L 410 73.5 L 410.5 64 Z " /><path fill="rgb(250,251,252)" stroke="rgb(250,251,252)" stroke-width="1" opacity="0.34509803921568627" d="M 449.5 64 L 450 86.5 L 449 86.5 L 449.5 64 Z " /><path fill="rgb(250,251,252)" stroke="rgb(250,251,252)" stroke-width="1" opacity="0.34509803921568627" d="M 204.5 65 L 207 68.5 L 204 66.5 L 204.5 65 Z " /><path fill="rgb(250,251,252)" stroke="rgb(250,251,252)" stroke-width="1" opacity="0.34509803921568627" d="M 222.5 65 L 228 67.5 L 226.5 67 L 222.5 66 L 222.5 65 Z " /><path fill="rgb(250,251,252)" stroke="rgb(250,251,252)" stroke-width="1" opacity="0.34509803921568627" d="M 273.5 65 L 274 71.5 L 273 71.5 L 273.5 65 Z " /><path fill="rgb(250,251,252)" stroke="rgb(250,251,252)" stroke-width="1" opacity="0.34509803921568627" d="M 389.5 65 L 390 71.5 L 389 71.5 L 389.5 65 Z " /><path fill="rgb(250,251,252)" stroke="rgb(250,251,252)" stroke-width="1" opacity="0.34509803921568627" d="M 471.5 65 L 472 86.5 L 471 86.5 L 471.5 65 Z " /><path fill="rgb(250,251,252)" stroke="rgb(250,251,252)" stroke-width="1" opacity="0.34509803921568627" d="M 283.5 66 L 284 71.5 L 283 71.5 L 283.5 66 Z " /><path fill="rgb(250,251,252)" stroke="rgb(250,251,252)" stroke-width="1" opacity="0.34509803921568627" d="M 145.5 67 L 164 67.5 L 145.5 68 L 145.5 67 Z " /><path fill="rgb(250,251,252)" stroke="rgb(250,251,252)" stroke-width="1" opacity="0.34509803921568627" d="M 256.5 67 L 257 69.5 L 256 69.5 L 256.5 67 Z " /><path fill="rgb(250,251,252)" stroke="rgb(250,251,252)" stroke-width="1" opacity="0.34509803921568627" d="M 335.5 67 L 336 86.5 L 335 86.5 L 335.5 67 Z " /><path fill="rgb(250,251,252)" stroke="rgb(250,251,252)" stroke-width="1" opacity="0.34509803921568627" d="M 343.5 67 L 347 69.5 L 344.5 68 L 343.5 67 Z " /><path fill="rgb(250,251,252)" stroke="rgb(250,251,252)" stroke-width="1" opacity="0.34509803921568627" d="M 372.5 67 L 373 69.5 L 372 69.5 L 372.5 67 Z " /><path fill="rgb(250,251,252)" stroke="rgb(250,251,252)" stroke-width="1" opacity="0.34509803921568627" d="M 208.5 69 L 211 70.5 L 209.5 71 L 208.5 69 Z " /><path fill="rgb(250,251,252)" stroke="rgb(250,251,252)" stroke-width="1" opacity="0.34509803921568627" d="M 190.5 70 L 191 73.5 L 190 73.5 L 190.5 70 Z " /><path fill="rgb(250,251,252)" stroke="rgb(250,251,252)" stroke-width="1" opacity="0.34509803921568627" d="M 230.5 70 L 232 72.5 L 231 72.5 L 230.5 70 Z " /><path fill="rgb(250,251,252)" stroke="rgb(250,251,252)" stroke-width="1" opacity="0.34509803921568627" d="M 436.5 70 L 437 74.5 L 436 74.5 L 436.5 70 Z " /><path fill="rgb(250,251,252)" stroke="rgb(250,251,252)" stroke-width="1" opacity="0.34509803921568627" d="M 216.5 72 L 219 72.5 L 216.5 73 L 216.5 72 Z " /><path fill="rgb(250,251,252)" stroke="rgb(250,251,252)" stroke-width="1" opacity="0.34509803921568627" d="M 247.5 73 L 248 75.5 L 247 75.5 L 247.5 73 Z " /><path fill="rgb(250,251,252)" stroke="rgb(250,251,252)" stroke-width="1" opacity="0.34509803921568627" d="M 363.5 73 L 364 75.5 L 363 75.5 L 363.5 73 Z " /><path fill="rgb(250,251,252)" stroke="rgb(250,251,252)" stroke-width="1" opacity="0.34509803921568627" d="M 272.5 74 L 273 75.5 L 269 78.5 L 272.5 74 Z " /><path fill="rgb(250,251,252)" stroke="rgb(250,251,252)" stroke-width="1" opacity="0.34509803921568627" d="M 388.5 74 L 389 75.5 L 385 78.5 L 388.5 74 Z " /><path fill="rgb(250,251,252)" stroke="rgb(250,251,252)" stroke-width="1" opacity="0.34509803921568627" d="M 189.5 75 L 190 76.5 L 187 78.5 L 189.5 75 Z " /><path fill="rgb(250,251,252)" stroke="rgb(250,251,252)" stroke-width="1" opacity="0.34509803921568627" d="M 206.5 75 L 209 75.5 L 203.5 79 L 206.5 75 Z " /><path fill="rgb(250,251,252)" stroke="rgb(250,251,252)" stroke-width="1" opacity="0.34509803921568627" d="M 222.5 75 L 223 77.5 L 222 77.5 L 222.5 75 Z " /><path fill="rgb(250,251,252)" stroke="rgb(250,251,252)" stroke-width="1" opacity="0.34509803921568627" d="M 258.5 76 L 260.5 79 L 258.5 76 Z " /><path fill="rgb(250,251,252)" stroke="rgb(250,251,252)" stroke-width="1" opacity="0.34509803921568627" d="M 374.5 76 L 376.5 79 L 374.5 76 Z " /><path fill="rgb(250,251,252)" stroke="rgb(250,251,252)" stroke-width="1" opacity="0.34509803921568627" d="M 210.5 77 L 211.5 79 L 210.5 77 Z " /><path fill="rgb(250,251,252)" stroke="rgb(250,251,252)" stroke-width="1" opacity="0.34509803921568627" d="M 281.5 77 L 282 78.5 L 276.5 85 L 280 80.5 L 281.5 77 Z " /><path fill="rgb(250,251,252)" stroke="rgb(250,251,252)" stroke-width="1" opacity="0.34509803921568627" d="M 397.5 77 L 398 78.5 L 392.5 85 L 396 80.5 L 397.5 77 Z " /><path fill="rgb(250,251,252)" stroke="rgb(250,251,252)" stroke-width="1" opacity="0.34509803921568627" d="M 424.5 77 L 423.5 79 L 424.5 77 Z " /><path fill="rgb(250,251,252)" stroke="rgb(250,251,252)" stroke-width="1" opacity="0.34509803921568627" d="M 180.5 79 L 186 79.5 L 180.5 80 L 180.5 79 Z " /><path fill="rgb(250,251,252)" stroke="rgb(250,251,252)" stroke-width="1" opacity="0.34509803921568627" d="M 231.5 79 L 232 80.5 L 227.5 86 L 224.5 87 L 224.5 86 L 230 82.5 L 231.5 79 Z " /><path fill="rgb(250,251,252)" stroke="rgb(250,251,252)" stroke-width="1" opacity="0.34509803921568627" d="M 262.5 79 L 268 79.5 L 262.5 80 L 262.5 79 Z " /><path fill="rgb(250,251,252)" stroke="rgb(250,251,252)" stroke-width="1" opacity="0.34509803921568627" d="M 378.5 79 L 384 79.5 L 378.5 80 L 378.5 79 Z " /><path fill="rgb(250,251,252)" stroke="rgb(250,251,252)" stroke-width="1" opacity="0.34509803921568627" d="M 416.5 79 L 422 79.5 L 416.5 80 L 416.5 79 Z " /><path fill="rgb(250,251,252)" stroke="rgb(250,251,252)" stroke-width="1" opacity="0.34509803921568627" d="M 434.5 79 L 433.5 81 L 434.5 79 Z " /><path fill="rgb(250,251,252)" stroke="rgb(250,251,252)" stroke-width="1" opacity="0.34509803921568627" d="M 168.5 80 L 170 82.5 L 168 81.5 L 168.5 80 Z " /><path fill="rgb(250,251,252)" stroke="rgb(250,251,252)" stroke-width="1" opacity="0.34509803921568627" d="M 403.5 80 L 404.5 82 L 403.5 80 Z " /><path fill="rgb(250,251,252)" stroke="rgb(250,251,252)" stroke-width="1" opacity="0.34509803921568627" d="M 250.5 81 L 253.5 85 L 250.5 81 Z " /><path fill="rgb(250,251,252)" stroke="rgb(250,251,252)" stroke-width="1" opacity="0.34509803921568627" d="M 362.5 81 L 362 82.5 L 361.5 84 L 361 82.5 L 362.5 81 Z " /><path fill="rgb(250,251,252)" stroke="rgb(250,251,252)" stroke-width="1" opacity="0.34509803921568627" d="M 366.5 81 L 369.5 85 L 366.5 81 Z " /><path fill="rgb(250,251,252)" stroke="rgb(250,251,252)" stroke-width="1" opacity="0.34509803921568627" d="M 432.5 82 L 431.5 84 L 432.5 82 Z " /><path fill="rgb(250,251,252)" stroke="rgb(250,251,252)" stroke-width="1" opacity="0.34509803921568627" d="M 189.5 83 L 186.5 87 L 185 86.5 L 189.5 83 Z " /><path fill="rgb(250,251,252)" stroke="rgb(250,251,252)" stroke-width="1" opacity="0.34509803921568627" d="M 406.5 83 L 408.5 86 L 406.5 83 Z " /><path fill="rgb(250,251,252)" stroke="rgb(250,251,252)" stroke-width="1" opacity="0.34509803921568627" d="M 493.5 83 L 494 86.5 L 493 86.5 L 493.5 83 Z " /><path fill="rgb(250,251,252)" stroke="rgb(250,251,252)" stroke-width="1" opacity="0.34509803921568627" d="M 170.5 84 L 171.5 86 L 170.5 84 Z " /><path fill="rgb(250,251,252)" stroke="rgb(250,251,252)" stroke-width="1" opacity="0.34509803921568627" d="M 205.5 84 L 206.5 86 L 205.5 84 Z " /><path fill="rgb(250,251,252)" stroke="rgb(250,251,252)" stroke-width="1" opacity="0.34509803921568627" d="M 429.5 84 L 428.5 86 L 429.5 84 Z " /><path fill="rgb(250,251,252)" stroke="rgb(250,251,252)" stroke-width="1" opacity="0.34509803921568627" d="M 274.5 85 L 273.5 87 L 272 86.5 L 274.5 85 Z " /><path fill="rgb(250,251,252)" stroke="rgb(250,251,252)" stroke-width="1" opacity="0.34509803921568627" d="M 390.5 85 L 389.5 87 L 388 86.5 L 390.5 85 Z " /><path fill="rgb(250,251,252)" stroke="rgb(250,251,252)" stroke-width="1" opacity="0.34509803921568627" d="M 175.5 87 L 179 87.5 L 175.5 88 L 175.5 87 Z " /><path fill="rgb(250,251,252)" stroke="rgb(250,251,252)" stroke-width="1" opacity="0.34509803921568627" d="M 181.5 87 L 184 87.5 L 181.5 88 L 181.5 87 Z " /><path fill="rgb(250,251,252)" stroke="rgb(250,251,252)" stroke-width="1" opacity="0.34509803921568627" d="M 212.5 87 L 216 87.5 L 212.5 88 L 212.5 87 Z " /><path fill="rgb(250,251,252)" stroke="rgb(250,251,252)" stroke-width="1" opacity="0.34509803921568627" d="M 219.5 87 L 223 87.5 L 219.5 88 L 219.5 87 Z " /><path fill="rgb(250,251,252)" stroke="rgb(250,251,252)" stroke-width="1" opacity="0.34509803921568627" d="M 260.5 87 L 264 87.5 L 260.5 88 L 260.5 87 Z " /><path fill="rgb(250,251,252)" stroke="rgb(250,251,252)" stroke-width="1" opacity="0.34509803921568627" d="M 267.5 87 L 271 87.5 L 267.5 88 L 267.5 87 Z " /><path fill="rgb(250,251,252)" stroke="rgb(250,251,252)" stroke-width="1" opacity="0.34509803921568627" d="M 376.5 87 L 380 87.5 L 376.5 88 L 376.5 87 Z " /><path fill="rgb(250,251,252)" stroke="rgb(250,251,252)" stroke-width="1" opacity="0.34509803921568627" d="M 383.5 87 L 387 87.5 L 383.5 88 L 383.5 87 Z " /><path fill="rgb(250,251,252)" stroke="rgb(250,251,252)" stroke-width="1" opacity="0.34509803921568627" d="M 413.5 87 L 417 87.5 L 413.5 88 L 413.5 87 Z " /><path fill="rgb(250,251,252)" stroke="rgb(250,251,252)" stroke-width="1" opacity="0.34509803921568627" d="M 420.5 87 L 424 87.5 L 420.5 88 L 420.5 87 Z " /><path fill="rgb(43,123,231)" stroke="rgb(43,123,231)" stroke-width="1" opacity="0.9725490196078431" d="M 100.5 38 L 98.5 41 L 89 49.5 L 89 64.5 Q 90.4 70.6 95.5 73 L 104.5 79 L 107 77.5 L 107 75.5 L 108 40.5 L 107.5 39 L 110 40 Q 109 45.3 112 47.5 L 112 49.5 L 114 62.5 L 118.5 68 Q 124.6 69.3 124 66.5 L 125 66.5 Q 123.7 71.2 126 72.5 L 126 89.5 L 124 98.5 Q 121.8 105.3 116.5 109 L 109.5 113 L 98.5 114 L 97.5 115 L 41.5 115 L 40.5 114 L 29.5 113 L 18 104.5 L 13 90.5 L 13 40.5 L 14 40.5 L 14.5 69 L 15.5 67 L 21 68 Q 19.5 64.3 22.5 65 L 25 64 Q 23.5 58.2 27 56.5 L 26 54.5 L 28 48.5 L 27.5 47 Q 30.5 47.9 29 43.5 L 31.5 40 L 32 69.5 L 36.5 76 L 40.5 78 L 81.5 78 L 82.5 79 L 85 78 L 86 74.5 L 86 72.5 L 86 46.5 L 85 44.5 L 85.5 42 L 88.5 46 L 92.5 45 L 100.5 38 Z " /><path fill="rgb(43,123,231)" stroke="rgb(43,123,231)" stroke-width="1" opacity="0.9725490196078431" d="M 82.5 40 L 83.5 42 L 82.5 40 Z " /></svg>